<mxfile host="app.diagrams.net" modified="2023-07-01T10:17:25.586Z" agent="Mozilla/5.0 (Macintosh; Intel Mac OS X 10_15_7) AppleWebKit/537.36 (KHTML, like Gecko) Chrome/114.0.0.0 Safari/537.36" version="21.5.2" etag="ibIto1fMbfDNjruH8t51" type="github">
  <diagram name="Page-1" id="_GMl0Q-ryAaHnrnkxRnC">
    <mxGraphModel>
      <root>
        <mxCell id="0" />
        <mxCell id="1" parent="0" />
      </root>
    </mxGraphModel>
  </diagram>
</mxfile>
